<?xml version="1.0" standalone="no"?>
<!DOCTYPE svg PUBLIC "-//W3C//DTD SVG 20010904//EN"
 "http://www.w3.org/TR/2001/REC-SVG-20010904/DTD/svg10.dtd">
<svg version="1.0" xmlns="http://www.w3.org/2000/svg"
 width="3040.000000pt" height="194.000000pt" viewBox="0 0 3040.000000 194.000000"
 preserveAspectRatio="xMidYMid meet">

<g transform="translate(0.000000,194.000000) scale(0.100000,-0.100000)"
fill="#000000" stroke="none">
<path d="M535 1450 c-125 -22 -191 -75 -222 -177 -25 -86 -25 -502 0 -586 23
-76 72 -130 145 -158 54 -21 75 -23 365 -27 422 -5 500 7 575 92 57 65 67 121
67 386 -1 280 -10 328 -79 396 -72 72 -101 77 -476 80 -179 1 -347 -1 -375 -6z
m710 -112 c44 -24 72 -58 84 -103 14 -53 14 -457 0 -510 -12 -45 -40 -79 -84
-103 -26 -15 -72 -17 -365 -17 -363 0 -366 0 -416 57 -39 42 -44 81 -44 318 0
237 5 276 44 318 52 58 73 61 436 59 272 -2 319 -4 345 -19z"/>
<path d="M3060 1450 c-99 -17 -157 -59 -192 -137 -29 -67 -45 -306 -31 -491 9
-122 13 -145 38 -190 15 -28 44 -62 64 -76 73 -49 91 -51 476 -51 408 0 436 4
495 72 48 54 53 75 58 246 l4 157 -296 0 -296 0 0 -50 0 -50 236 0 236 0 -4
-87 c-5 -103 -20 -139 -68 -167 -33 -20 -50 -21 -365 -21 -371 0 -383 2 -427
74 -22 34 -23 47 -26 278 -2 150 1 256 7 281 14 52 62 97 116 111 59 15 596
15 650 0 74 -20 115 -79 115 -164 l0 -45 56 0 57 0 -5 78 c-7 127 -58 195
-166 223 -55 14 -662 22 -732 9z"/>
<path d="M4395 1450 c-125 -22 -191 -75 -222 -177 -25 -86 -25 -502 0 -586 23
-76 72 -130 145 -158 54 -21 75 -23 365 -27 422 -5 500 7 575 92 57 65 67 121
67 386 -1 280 -10 328 -79 396 -72 72 -101 77 -476 80 -179 1 -347 -1 -375 -6z
m710 -112 c44 -24 72 -58 84 -103 14 -53 14 -457 0 -510 -12 -45 -40 -79 -84
-103 -26 -15 -72 -17 -365 -17 -363 0 -366 0 -416 57 -39 42 -44 81 -44 318 0
237 5 276 44 318 52 58 73 61 436 59 272 -2 319 -4 345 -19z"/>
<path d="M1602 1362 c23 -43 140 -253 258 -465 l215 -387 75 0 75 1 225 406
c124 224 240 433 258 465 l32 59 -67 -3 -68 -3 -229 -413 -229 -413 -145 263
c-79 145 -182 331 -227 413 l-83 150 -67 3 -67 3 44 -79z"/>
</g>
</svg>
